<?xml version="1.0" encoding="UTF-8" standalone="no"?>
<svg
   xmlns:dc="http://purl.org/dc/elements/1.1/"
   xmlns:cc="http://creativecommons.org/ns#"
   xmlns:rdf="http://www.w3.org/1999/02/22-rdf-syntax-ns#"
   xmlns:svg="http://www.w3.org/2000/svg"
   xmlns="http://www.w3.org/2000/svg"
   viewBox="0 0 337.33334 344"
   height="344"
   width="337.33334"
   xml:space="preserve"
   id="svg2"
   version="1.1"><metadata
     id="metadata8"><rdf:RDF><cc:Work
         rdf:about=""><dc:format>image/svg+xml</dc:format><dc:type
           rdf:resource="http://purl.org/dc/dcmitype/StillImage" /></cc:Work></rdf:RDF></metadata><defs
     id="defs6" /><g
     transform="matrix(1.3333333,0,0,-1.3333333,0,344)"
     id="g10"><g
       transform="scale(0.1)"
       id="g12"><path
         id="path14"
         style="fill:#ed1c24;fill-opacity:1;fill-rule:evenodd;stroke:none"
         d="M 1266.9,9.44531 1.22656,2145.58 v 430.39 H 2527.75 V 2145.58 L 1266.9,9.44531" /><path
         id="path16"
         style="fill:#fff200;fill-opacity:1;fill-rule:evenodd;stroke:none"
         d="M 1265.59,136.262 73.6914,2147.87 v 360.67 H 2452.91 V 2147.87 L 1265.59,136.262 Z M 2379.73,2143 H 146.898 L 1265.43,274.43 2379.73,2143 Z M 144.898,2205.37 H 2381.71 v 231.97 H 144.898 v -231.97" /><path
         id="path18"
         style="fill:#fff200;fill-opacity:1;fill-rule:evenodd;stroke:none"
         d="m 1660.02,1972.73 c -156.95,-2.6 -396.63,66.99 -396.63,66.99 0,0 -228.16,-66.91 -377.941,-66.97 -150.101,-0.06 -378.769,66.97 -378.769,66.97 0,0 30.761,-329.35 126.008,-512.59 149.32,-287.35 630.702,-549.341 630.702,-549.341 0,0 481.53,262.071 630.85,549.531 95.17,183.2 125.87,512.39 125.87,512.39 0,0 -217.15,-64.59 -360.09,-66.98 z m 162.1,-433.23 c -132.57,-254.18 -558.35,-486.38 -558.35,-486.38 0,0 -425.688,232.14 -558.286,486.23 -76.718,147.02 -111.504,409.05 -111.504,409.05 0,0 203.747,-41.19 335.25,-36.95 132.5,4.26 334.54,59.26 334.54,59.26 0,0 212.14,-56.7 351.03,-59.28 125.14,-2.3 318.7,36.96 318.7,36.96 0,0 -34.72,-261.9 -111.38,-408.89" /><path
         id="path20"
         style="fill:#ffffff;fill-opacity:1;fill-rule:evenodd;stroke:none"
         d="m 1859.11,1877.63 c 0,0 -42.26,-215.71 -109.27,-336.98 -121.89,-220.6 -490.66,-427.4 -490.66,-427.4 0,0 -368.68,206.75 -490.578,427.25 -67.071,121.32 -109.387,337.13 -109.387,337.13 0,0 186.664,-29.96 305.996,-21.3 117.059,8.51 293.969,63.24 293.969,63.24 0,0 185.79,-55.96 308.47,-63.25 113.78,-6.75 291.46,21.31 291.46,21.31" /><path
         id="path22"
         style="fill:#fff200;fill-opacity:1;fill-rule:evenodd;stroke:none"
         d="m 248.074,2375.31 c 26.926,-0.46 36.008,-1.63 36.313,-21.89 v -56.46 c 0.929,-23.06 0.625,-34.14 -36.313,-32.28 v 110.63 z m 19.102,-141.95 c 16.906,0 34.344,1.17 48.676,8.11 15.902,7.43 23.058,20.21 23.355,37.51 v 76.74 c 0,16.58 -3.422,33.5 -24.602,42.78 -17.753,7.66 -41.789,8.14 -61.843,8.14 h -59.524 v -173.28 h 73.938" /><path
         id="path24"
         style="fill:#fff200;fill-opacity:1;fill-rule:evenodd;stroke:none"
         d="m 366.863,2233.33 v 173.33 h 125.703 v -34.53 h -70.878 v -32.08 h 68.699 v -34.52 h -68.699 v -37.67 h 74.617 v -34.53 H 366.863" /><path
         id="path26"
         style="fill:#fff200;fill-opacity:1;fill-rule:evenodd;stroke:none"
         d="m 564.273,2291.39 v -12.21 c 0,-9.92 4.364,-18.68 21.875,-18.68 12.774,0 18.375,8.53 18.375,17.29 0,14.52 -16.199,20.07 -30.511,26.52 -16.828,7.16 -31.203,13.83 -41.508,22.61 -9.992,8.76 -15.914,19.36 -15.914,34.58 0,32.61 26.535,49.31 68.937,49.31 47.711,0 72.059,-23.67 69.555,-56.22 h -50.559 c -0.625,10.15 0,23.97 -18.058,24.91 -11.207,0.69 -17.742,-3.93 -18.977,-11.54 -1.562,-10.38 5.59,-15.67 16.477,-21.21 20.558,-9.7 38.351,-15.68 51.144,-24.45 12.793,-8.76 20.289,-20.29 20.289,-41.28 0,-33.28 -24.972,-51.86 -70.55,-51.86 -50.246,0 -71.473,20.9 -71.473,43.8 v 18.43 h 50.898" /><path
         id="path28"
         style="fill:#fff200;fill-opacity:1;fill-rule:evenodd;stroke:none"
         d="m 733.227,2307.29 c 23.5,-0.69 39.156,-0.22 39.156,-20.25 0,-23.28 -11.594,-21.9 -39.156,-22.36 v 42.61 z m 0,68.02 c 19.324,0 35.25,0.7 35.25,-16.28 0,-20.4 -11.239,-19.27 -35.25,-20.4 v 36.68 z m 22.464,-141.95 c 44.735,0 71.532,15.09 71.532,50.22 0,21.42 -5.309,30.68 -30.227,41.35 v 0.47 c 18.82,7.66 26.305,21.25 26.305,36.38 0,34.87 -32.403,44.86 -73.852,44.86 h -71.062 v -173.28 h 77.304" /><path
         id="path30"
         style="fill:#fff200;fill-opacity:1;fill-rule:evenodd;stroke:none"
         d="m 906.121,2375.31 c 26.906,0.46 38.488,-0.46 38.488,-20.9 0,-10.57 -3.769,-21.36 -19.718,-21.36 h -18.77 v 42.26 z m 0,-73.59 h 18.121 c 12.793,-0.69 17.156,-7.62 18.738,-18.23 1.54,-10.61 0.309,-24.92 1.239,-40.14 0.301,-3.47 1.562,-6.69 3.125,-9.99 h 59.896 v 2.37 c -2.27,1.62 -3.85,3.7 -5.09,6.01 -3.127,11.06 -3.443,40.83 -4.994,54.67 -0.957,12.03 -11.886,19.92 -27.226,22.47 v 0.47 c 23.14,7.89 29.093,21.04 29.093,39.42 0,34.4 -22.515,47.87 -67.554,47.87 h -80.18 v -173.28 h 54.832 v 68.36" /><path
         id="path32"
         style="fill:#fff200;fill-opacity:1;fill-rule:evenodd;stroke:none"
         d="m 1114.24,2297.82 h -31.86 l 15.94,77.46 h 0.62 l 15.3,-77.46 z m -44.34,-64.49 6.55,33.86 h 43.1 l 7.81,-33.86 h 55.59 l -50.9,173.33 h -66.23 l -51.21,-173.33 h 55.29" /><path
         id="path34"
         style="fill:#fff200;fill-opacity:1;fill-rule:evenodd;stroke:none"
         d="m 1228.26,2233.33 -50.88,173.33 h 54.92 l 28.09,-121.56 h 0.61 l 28.09,121.56 h 54.93 l -51.17,-173.33 h -64.59" /><path
         id="path36"
         style="fill:#fff200;fill-opacity:1;fill-rule:evenodd;stroke:none"
         d="m 1438.45,2297.82 h -31.88 l 15.95,77.46 h 0.63 l 15.3,-77.46 z m -44.35,-64.49 6.56,33.86 h 43.11 l 7.79,-33.86 h 55.59 l -50.91,173.33 h -66.2 l -51.22,-173.33 h 55.28" /><path
         id="path38"
         style="fill:#fff200;fill-opacity:1;fill-rule:evenodd;stroke:none"
         d="m 1578.97,2375.31 c 26.94,-0.46 36.02,-1.63 36.32,-21.89 v -56.46 c 0.94,-23.06 0.62,-34.14 -36.32,-32.28 v 110.63 z m 19.1,-141.95 c 16.92,0 34.35,1.17 48.7,8.11 15.87,7.43 23.05,20.21 23.36,37.51 v 76.74 c 0,16.58 -3.43,33.5 -24.63,42.78 -17.76,7.66 -41.79,8.14 -61.83,8.14 h -59.54 v -173.28 h 73.94" /><path
         id="path40"
         style="fill:#fff200;fill-opacity:1;fill-rule:evenodd;stroke:none"
         d="m 1789.6,2285.17 c 0,-9.91 -1.24,-24.67 -19.1,-24.67 -17.85,0 -20.05,14.76 -20.05,24.67 v 71.03 c 0,10.6 2.2,23.3 19.74,23.3 18.17,0 19.41,-12.7 19.41,-23.3 v -71.03 z m 54.83,73.79 c 0,33.29 -25.83,51.85 -73.93,51.85 -48.09,0 -74.89,-18.56 -74.89,-51.85 v -70.34 c 0,-39.03 19.31,-59.46 74.89,-59.46 55.56,0 73.93,20.43 73.93,59.46 v 70.34" /><path
         id="path42"
         style="fill:#fff200;fill-opacity:1;fill-rule:evenodd;stroke:none"
         d="m 1924.78,2375.31 c 26.89,0.46 38.48,-0.46 38.48,-20.9 0,-10.57 -3.76,-21.36 -19.71,-21.36 h -18.77 v 42.26 z m 0,-73.59 h 18.11 c 12.81,-0.69 17.16,-7.62 18.73,-18.23 1.57,-10.61 0.33,-24.92 1.26,-40.14 0.31,-3.47 1.56,-6.69 3.09,-9.99 h 59.92 v 2.37 c -2.3,1.62 -3.85,3.7 -5.1,6.01 -3.14,11.06 -3.45,40.83 -5,54.67 -0.93,12.03 -11.9,19.92 -27.21,22.47 v 0.47 c 23.15,7.89 29.07,21.04 29.07,39.42 0,34.4 -22.49,47.87 -67.52,47.87 h -80.2 v -173.28 h 54.85 v 68.36" /><path
         id="path44"
         style="fill:#fff200;fill-opacity:1;fill-rule:evenodd;stroke:none"
         d="m 2044.96,2233.33 v 173.33 h 125.74 v -34.53 h -70.91 v -32.08 h 68.72 v -34.52 h -68.72 v -37.67 h 74.66 v -34.53 h -129.49" /><path
         id="path46"
         style="fill:#fff200;fill-opacity:1;fill-rule:evenodd;stroke:none"
         d="m 2242.37,2291.39 v -12.21 c 0,-9.92 4.4,-18.68 21.9,-18.68 12.77,0 18.38,8.53 18.38,17.29 0,14.52 -16.19,20.07 -30.52,26.52 -16.83,7.16 -31.2,13.83 -41.5,22.61 -10,8.76 -15.92,19.36 -15.92,34.58 0,32.61 26.53,49.31 68.93,49.31 47.7,0 72.04,-23.67 69.54,-56.22 h -50.53 c -0.63,10.15 0,23.97 -18.04,24.91 -11.24,0.69 -17.77,-3.93 -19.01,-11.54 -1.56,-10.38 5.6,-15.67 16.5,-21.21 20.55,-9.7 38.34,-15.68 51.1,-24.45 12.8,-8.76 20.3,-20.29 20.3,-41.28 0,-33.28 -24.96,-51.86 -70.51,-51.86 -50.27,0 -71.51,20.9 -71.51,43.8 v 18.43 h 50.89" /><path
         id="path48"
         style="fill:#fff200;fill-opacity:1;fill-rule:evenodd;stroke:none"
         d="m 248.074,2375.31 c 26.926,-0.46 36.008,-1.63 36.313,-21.89 v -56.46 c 0.929,-23.06 0.625,-34.14 -36.313,-32.28 v 110.63 z m 19.102,-141.95 c 16.906,0 34.344,1.17 48.676,8.11 15.902,7.43 23.058,20.21 23.355,37.51 v 76.74 c 0,16.58 -3.422,33.5 -24.602,42.78 -17.753,7.66 -41.789,8.14 -61.843,8.14 h -59.524 v -173.28 h 73.938" /><path
         id="path50"
         style="fill:#fff200;fill-opacity:1;fill-rule:evenodd;stroke:none"
         d="m 366.863,2233.33 v 173.33 h 125.703 v -34.53 h -70.878 v -32.08 h 68.699 v -34.52 h -68.699 v -37.67 h 74.617 v -34.53 H 366.863" /><path
         id="path52"
         style="fill:#fff200;fill-opacity:1;fill-rule:evenodd;stroke:none"
         d="m 564.273,2291.39 v -12.21 c 0,-9.92 4.364,-18.68 21.875,-18.68 12.774,0 18.375,8.53 18.375,17.29 0,14.52 -16.199,20.07 -30.511,26.52 -16.828,7.16 -31.203,13.83 -41.508,22.61 -9.992,8.76 -15.914,19.36 -15.914,34.58 0,32.61 26.535,49.31 68.937,49.31 47.711,0 72.059,-23.67 69.555,-56.22 h -50.559 c -0.625,10.15 0,23.97 -18.058,24.91 -11.207,0.69 -17.742,-3.93 -18.977,-11.54 -1.562,-10.38 5.59,-15.67 16.477,-21.21 20.558,-9.7 38.351,-15.68 51.144,-24.45 12.793,-8.76 20.289,-20.29 20.289,-41.28 0,-33.28 -24.972,-51.86 -70.55,-51.86 -50.246,0 -71.473,20.9 -71.473,43.8 v 18.43 h 50.898" /><path
         id="path54"
         style="fill:#fff200;fill-opacity:1;fill-rule:evenodd;stroke:none"
         d="m 733.227,2307.29 c 23.5,-0.69 39.156,-0.22 39.156,-20.25 0,-23.28 -11.594,-21.9 -39.156,-22.36 v 42.61 z m 0,68.02 c 19.324,0 35.25,0.7 35.25,-16.28 0,-20.4 -11.239,-19.27 -35.25,-20.4 v 36.68 z m 22.464,-141.95 c 44.735,0 71.532,15.09 71.532,50.22 0,21.42 -5.309,30.68 -30.227,41.35 v 0.47 c 18.82,7.66 26.305,21.25 26.305,36.38 0,34.87 -32.403,44.86 -73.852,44.86 h -71.062 v -173.28 h 77.304" /><path
         id="path56"
         style="fill:#fff200;fill-opacity:1;fill-rule:evenodd;stroke:none"
         d="m 906.121,2375.31 c 26.906,0.46 38.488,-0.46 38.488,-20.9 0,-10.57 -3.769,-21.36 -19.718,-21.36 h -18.77 v 42.26 z m 0,-73.59 h 18.121 c 12.793,-0.69 17.156,-7.62 18.738,-18.23 1.54,-10.61 0.309,-24.92 1.239,-40.14 0.301,-3.47 1.562,-6.69 3.125,-9.99 h 59.896 v 2.37 c -2.27,1.62 -3.85,3.7 -5.09,6.01 -3.127,11.06 -3.443,40.83 -4.994,54.67 -0.957,12.03 -11.886,19.92 -27.226,22.47 v 0.47 c 23.14,7.89 29.093,21.04 29.093,39.42 0,34.4 -22.515,47.87 -67.554,47.87 h -80.18 v -173.28 h 54.832 v 68.36" /><path
         id="path58"
         style="fill:#fff200;fill-opacity:1;fill-rule:evenodd;stroke:none"
         d="m 1114.24,2297.82 h -31.86 l 15.94,77.46 h 0.62 l 15.3,-77.46 z m -44.34,-64.49 6.55,33.86 h 43.1 l 7.81,-33.86 h 55.59 l -50.9,173.33 h -66.23 l -51.21,-173.33 h 55.29" /><path
         id="path60"
         style="fill:#fff200;fill-opacity:1;fill-rule:evenodd;stroke:none"
         d="m 1228.26,2233.33 -50.88,173.33 h 54.92 l 28.09,-121.56 h 0.61 l 28.09,121.56 h 54.93 l -51.17,-173.33 h -64.59" /><path
         id="path62"
         style="fill:#fff200;fill-opacity:1;fill-rule:evenodd;stroke:none"
         d="m 1438.45,2297.82 h -31.88 l 15.95,77.46 h 0.63 l 15.3,-77.46 z m -44.35,-64.49 6.56,33.86 h 43.11 l 7.79,-33.86 h 55.59 l -50.91,173.33 h -66.2 l -51.22,-173.33 h 55.28" /><path
         id="path64"
         style="fill:#fff200;fill-opacity:1;fill-rule:evenodd;stroke:none"
         d="m 1578.97,2375.31 c 26.94,-0.46 36.02,-1.63 36.32,-21.89 v -56.46 c 0.94,-23.06 0.62,-34.14 -36.32,-32.28 v 110.63 z m 19.1,-141.95 c 16.92,0 34.35,1.17 48.7,8.11 15.87,7.43 23.05,20.21 23.36,37.51 v 76.74 c 0,16.58 -3.43,33.5 -24.63,42.78 -17.76,7.66 -41.79,8.14 -61.83,8.14 h -59.54 v -173.28 h 73.94" /><path
         id="path66"
         style="fill:#fff200;fill-opacity:1;fill-rule:evenodd;stroke:none"
         d="m 1789.6,2285.17 c 0,-9.91 -1.24,-24.67 -19.1,-24.67 -17.85,0 -20.05,14.76 -20.05,24.67 v 71.03 c 0,10.6 2.2,23.3 19.74,23.3 18.17,0 19.41,-12.7 19.41,-23.3 v -71.03 z m 54.83,73.79 c 0,33.29 -25.83,51.85 -73.93,51.85 -48.09,0 -74.89,-18.56 -74.89,-51.85 v -70.34 c 0,-39.03 19.31,-59.46 74.89,-59.46 55.56,0 73.93,20.43 73.93,59.46 v 70.34" /><path
         id="path68"
         style="fill:#fff200;fill-opacity:1;fill-rule:evenodd;stroke:none"
         d="m 1924.78,2375.31 c 26.89,0.46 38.48,-0.46 38.48,-20.9 0,-10.57 -3.76,-21.36 -19.71,-21.36 h -18.77 v 42.26 z m 0,-73.59 h 18.11 c 12.81,-0.69 17.16,-7.62 18.73,-18.23 1.57,-10.61 0.33,-24.92 1.26,-40.14 0.31,-3.47 1.56,-6.69 3.09,-9.99 h 59.92 v 2.37 c -2.3,1.62 -3.85,3.7 -5.1,6.01 -3.14,11.06 -3.45,40.83 -5,54.67 -0.93,12.03 -11.9,19.92 -27.21,22.47 v 0.47 c 23.15,7.89 29.07,21.04 29.07,39.42 0,34.4 -22.49,47.87 -67.52,47.87 h -80.2 v -173.28 h 54.85 v 68.36" /><path
         id="path70"
         style="fill:#fff200;fill-opacity:1;fill-rule:evenodd;stroke:none"
         d="m 2044.96,2233.33 v 173.33 h 125.74 v -34.53 h -70.91 v -32.08 h 68.72 v -34.52 h -68.72 v -37.67 h 74.66 v -34.53 h -129.49" /><path
         id="path72"
         style="fill:#fff200;fill-opacity:1;fill-rule:evenodd;stroke:none"
         d="m 2242.37,2291.39 v -12.21 c 0,-9.92 4.4,-18.68 21.9,-18.68 12.77,0 18.38,8.53 18.38,17.29 0,14.52 -16.19,20.07 -30.52,26.52 -16.83,7.16 -31.2,13.83 -41.5,22.61 -10,8.76 -15.92,19.36 -15.92,34.58 0,32.61 26.53,49.31 68.93,49.31 47.7,0 72.04,-23.67 69.54,-56.22 h -50.53 c -0.63,10.15 0,23.97 -18.04,24.91 -11.24,0.69 -17.77,-3.93 -19.01,-11.54 -1.56,-10.38 5.6,-15.67 16.5,-21.21 20.55,-9.7 38.34,-15.68 51.1,-24.45 12.8,-8.76 20.3,-20.29 20.3,-41.28 0,-33.28 -24.96,-51.86 -70.51,-51.86 -50.27,0 -71.51,20.9 -71.51,43.8 v 18.43 h 50.89" /><path
         id="path74"
         style="fill:#fff200;fill-opacity:1;fill-rule:evenodd;stroke:none"
         d="m 1078.18,848.539 v 8.531 c 0,11.383 -4.5,17.262 -11.07,17.262 -10.68,0.156 -13.21,-5.16 -13.21,-13.871 l -0.19,-66.004 c 0,-7.469 3.3,-11.914 12.23,-11.914 11.64,0 12.59,11.023 12.59,19.211 v 12.098 h 34.48 v -16.368 c 0,-22.945 -14.48,-38.968 -49.51,-38.968 -31.72,0 -44.07,15.312 -44.07,42.523 v 54.766 c 0,29 14.7,42.531 46.21,42.531 29.38,0 47.01,-11.387 47.01,-38.598 v -11.199 h -34.47" /><path
         id="path76"
         style="fill:#fff200;fill-opacity:1;fill-rule:evenodd;stroke:none"
         d="m 1127.71,761.676 v 133.562 h 34.47 V 788.477 h 42.02 v -26.801 h -76.49" /><path
         id="path78"
         style="fill:#fff200;fill-opacity:1;fill-rule:evenodd;stroke:none"
         d="M 1215.53,895.238 H 1250 V 794.457 c 0,-6.394 2.13,-11.914 11.88,-11.914 8.96,0 11.68,7.125 11.68,12.832 v 99.863 h 34.46 v -96.675 c 0,-22.602 -11.16,-40.047 -46.33,-40.047 -29.12,0 -46.16,12.652 -46.16,40.047 v 96.675" /><path
         id="path80"
         style="fill:#fff200;fill-opacity:1;fill-rule:evenodd;stroke:none"
         d="m 1359,818.531 c 14.56,-0.551 24.28,-0.207 24.28,-15.633 0,-17.929 -7.2,-16.851 -24.28,-17.222 v 32.855 z m 0,52.657 c 12.14,0 22.15,0.527 22.15,-12.719 0,-15.934 -7.06,-15.031 -22.15,-15.934 v 28.653 z m 14.11,-109.512 c 27.79,0 44.63,11.554 44.63,38.562 0,16.504 -3.34,23.614 -19.01,31.797 v 0.363 c 12.19,5.872 16.88,16.418 16.88,28.223 0,26.934 -20.38,34.582 -46.43,34.582 h -44.66 V 761.676 h 48.59" /><path
         id="path82"
         style="fill:#fff200;fill-opacity:1;fill-rule:evenodd;stroke:none"
         d="m 1433.52,761.676 v 133.515 h 78.82 v -26.785 h -44.36 v -24.484 h 42.98 v -26.789 h -42.98 v -28.656 h 46.71 v -26.801 h -81.17" /><path
         id="path84"
         style="fill:#fff200;fill-opacity:1;fill-rule:evenodd;stroke:none"
         d="m 1078.18,848.539 v 8.531 c 0,11.383 -4.5,17.262 -11.07,17.262 -10.68,0.156 -13.21,-5.16 -13.21,-13.871 l -0.19,-66.004 c 0,-7.469 3.3,-11.914 12.23,-11.914 11.64,0 12.59,11.023 12.59,19.211 v 12.098 h 34.48 v -16.368 c 0,-22.945 -14.48,-38.968 -49.51,-38.968 -31.72,0 -44.07,15.312 -44.07,42.523 v 54.766 c 0,29 14.7,42.531 46.21,42.531 29.38,0 47.01,-11.387 47.01,-38.598 v -11.199 h -34.47" /><path
         id="path86"
         style="fill:#fff200;fill-opacity:1;fill-rule:evenodd;stroke:none"
         d="m 1127.71,761.676 v 133.562 h 34.47 V 788.477 h 42.02 v -26.801 h -76.49" /><path
         id="path88"
         style="fill:#fff200;fill-opacity:1;fill-rule:evenodd;stroke:none"
         d="M 1215.53,895.238 H 1250 V 794.457 c 0,-6.394 2.13,-11.914 11.88,-11.914 8.96,0 11.68,7.125 11.68,12.832 v 99.863 h 34.46 v -96.675 c 0,-22.602 -11.16,-40.047 -46.33,-40.047 -29.12,0 -46.16,12.652 -46.16,40.047 v 96.675" /><path
         id="path90"
         style="fill:#fff200;fill-opacity:1;fill-rule:evenodd;stroke:none"
         d="m 1359,818.531 c 14.56,-0.551 24.28,-0.207 24.28,-15.633 0,-17.929 -7.2,-16.851 -24.28,-17.222 v 32.855 z m 0,52.657 c 12.14,0 22.15,0.527 22.15,-12.719 0,-15.934 -7.06,-15.031 -22.15,-15.934 v 28.653 z m 14.11,-109.512 c 27.79,0 44.63,11.554 44.63,38.562 0,16.504 -3.34,23.614 -19.01,31.797 v 0.363 c 12.19,5.872 16.88,16.418 16.88,28.223 0,26.934 -20.38,34.582 -46.43,34.582 h -44.66 V 761.676 h 48.59" /><path
         id="path92"
         style="fill:#fff200;fill-opacity:1;fill-rule:evenodd;stroke:none"
         d="m 1433.52,761.676 v 133.515 h 78.82 v -26.785 h -44.36 v -24.484 h 42.98 v -26.789 h -42.98 v -28.656 h 46.71 v -26.801 h -81.17" /><path
         id="path94"
         style="fill:#2e3192;fill-opacity:1;fill-rule:evenodd;stroke:none"
         d="m 994.438,1404.77 13.932,4.9 1036.84,479.9 -1088.116,-362.61 -9.821,-4.56 -35.757,143.97 34.195,55.8 -199.406,-55.8 74.047,-33.48 51.027,-145.75 -130.766,-60.72 -39.89,55.79 -62.66,-16.73 96.855,-234.38 62.664,27.9 -11.391,72.55 136.207,47.9 85.972,-148.35 -17.097,-72.55 153.807,89.29 -79.74,33.48 -70.902,123.45" /></g></g></svg>